<?xml version="1.0" encoding="UTF-8" standalone="no"?>
<svg
   version="1.1"
   x="0px"
   y="0px"
   width="106.38199"
   height="117.71964"
   viewBox="0 0 106.38199 117.71963"
   enable-background="new 0 0 841.89 595.28"
   id="svg22506"
   sodipodi:docname="Desktop2.svg"
   inkscape:version="1.2.2 (732a01da63, 2022-12-09)"
   xmlns:inkscape="http://www.inkscape.org/namespaces/inkscape"
   xmlns:sodipodi="http://sodipodi.sourceforge.net/DTD/sodipodi-0.dtd"
   xmlns="http://www.w3.org/2000/svg"
   xmlns:svg="http://www.w3.org/2000/svg">
  <defs
     id="defs22510" />
  <sodipodi:namedview
     id="namedview22508"
     pagecolor="#ffffff"
     bordercolor="#000000"
     borderopacity="0.25"
     inkscape:showpageshadow="2"
     inkscape:pageopacity="0.0"
     inkscape:pagecheckerboard="0"
     inkscape:deskcolor="#d1d1d1"
     showgrid="false"
     inkscape:zoom="0.38924424"
     inkscape:cx="-371.23222"
     inkscape:cy="1296.1014"
     inkscape:window-width="1920"
     inkscape:window-height="991"
     inkscape:window-x="-9"
     inkscape:window-y="-9"
     inkscape:window-maximized="1"
     inkscape:current-layer="svg22506" />
  <g
     id="g22347"
     clip-path="none"
     transform="translate(-215.44901,-259.59751)">
    <g
       id="g22335">
      <path
         fill="#291910"
         d="m 215.449,361.86 c 0,0 2.521,15.712 37.719,15.454 35.195,-0.258 63.325,-1.64 63.325,-1.64 l 5.338,-9.058 z"
         id="path22331" />
      <rect
         x="257.76501"
         y="262.10501"
         transform="matrix(0.9987,0.051,-0.051,0.9987,16.3447,-12.8044)"
         fill="#291910"
         width="2.3729999"
         height="103.219"
         id="rect22333" />
    </g>
    <path
       fill="#f5f5f5"
       d="m 263.833,275.631 c 0,0 3.874,21.502 3.574,47.951 -0.169,22.164 -5.688,38.278 -5.688,38.278 0,0 14.454,-6.483 27.202,-6.483 15.922,0 30.645,8.504 30.645,8.504 0,0 -21.852,-42.186 -35.103,-61.008 -13.252,-18.82 -20.63,-27.242 -20.63,-27.242 z"
       id="path22337" />
    <path
       fill="#f5f5f5"
       d="m 256.357,272.267 c 0,0 -13.357,36.997 -21.358,56.933 -6.321,14.66 -16.953,29.39 -16.953,29.39 0,0 17.434,-5.614 25.1,-2.14 7.666,3.475 13.21,5.698 13.21,5.698 0,0 -3.008,-29.38 -2.016,-44.941 0.994,-15.561 2.017,-44.94 2.017,-44.94 z"
       id="path22339" />
    <path
       fill="#d9d9d1"
       d="M 244.394,320.61 C 245.99,312.3 249,303.061 252,295.087 v -2.068 c -4,11.071 -9.992,25.917 -14.015,35.943 -5.647,13.099 -15.338,26.26 -15.338,26.26 0,0 7.323,-2.325 14.097,-2.828 1.186,-7.663 4.477,-20.225 7.65,-31.784 z"
       id="path22341" />
    <path
       fill="#d9d9d1"
       d="m 261.72,361.86 c 0,0 11.612,-5.205 23.2,-6.285 -0.108,-4.661 -0.89,-22.171 -6.562,-44.398 -3.213,-12.594 -6.405,-22.095 -8.849,-28.56 -2.423,-3.098 -4.1,-5.127 -4.972,-6.162 l -0.269,1.851 c 1.003,6.536 3.376,24.352 3.139,45.276 -0.169,22.164 -5.687,38.278 -5.687,38.278 z"
       id="path22343" />
    <path
       fill="#f94557"
       d="m 261.72,263.361 c 0,0 9.123,-5.577 15.184,-3.153 6.062,2.425 9.478,2.999 10.359,3.153 0.882,0.153 -4.651,3.128 -4.651,3.128 l 3.991,2.757 c 0,0 -12.564,-3.968 -17.964,-1.543 -5.401,2.424 -7.715,2.645 -7.715,2.645 z"
       id="path22345" />
  </g>
</svg>
